<svg width="96" height="27" viewBox="0 0 96 27" fill="none" xmlns="http://www.w3.org/2000/svg">
<rect x="0.543077" y="0.543077" width="94.4954" height="24.9815" rx="7.06" stroke="#FFC300" stroke-width="1.08615"/>
<path d="M13.0339 17.4893L9.09118 19.8701C8.97532 19.9273 8.86779 19.9505 8.76859 19.9397C8.67011 19.9281 8.57417 19.894 8.48076 19.8376C8.38662 19.7796 8.31566 19.6978 8.26787 19.5921C8.22008 19.4864 8.21574 19.3709 8.25484 19.2456L9.30406 14.7815L5.8338 11.7729C5.73605 11.6932 5.6716 11.598 5.64046 11.4872C5.60933 11.3764 5.61621 11.2703 5.6611 11.169C5.706 11.0676 5.76573 10.9843 5.84032 10.9191C5.91562 10.8562 6.017 10.8134 6.14444 10.791L10.7237 10.3913L12.5093 6.16397C12.5585 6.04449 12.6295 5.95832 12.7222 5.90546C12.8149 5.8526 12.9188 5.82617 13.0339 5.82617C13.149 5.82617 13.2533 5.8526 13.3467 5.90546C13.4401 5.95832 13.5107 6.04449 13.5585 6.16397L15.3442 10.3913L19.9223 10.791C20.0505 10.8127 20.1522 10.8558 20.2275 10.9202C20.3028 10.984 20.3629 11.0669 20.4078 11.169C20.452 11.2703 20.4585 11.3764 20.4274 11.4872C20.3962 11.598 20.3318 11.6932 20.234 11.7729L16.7638 14.7815L17.813 19.2456C17.8535 19.3694 17.8496 19.4846 17.801 19.591C17.7525 19.6974 17.6812 19.7793 17.5871 19.8365C17.4944 19.8944 17.3984 19.9288 17.2992 19.9397C17.2008 19.9505 17.0936 19.9273 16.9777 19.8701L13.0339 17.4893Z" fill="#FFC400"/>
<path d="M30.4123 17.4893L26.4696 19.8701C26.3537 19.9273 26.2462 19.9505 26.147 19.9397C26.0485 19.9281 25.9526 19.894 25.8592 19.8376C25.765 19.7796 25.6941 19.6978 25.6463 19.5921C25.5985 19.4864 25.5942 19.3709 25.6333 19.2456L26.6825 14.7815L23.2122 11.7729C23.1145 11.6932 23.05 11.598 23.0189 11.4872C22.9877 11.3764 22.9946 11.2703 23.0395 11.169C23.0844 11.0676 23.1442 10.9843 23.2187 10.9191C23.294 10.8562 23.3954 10.8134 23.5229 10.791L28.1021 10.3913L29.8877 6.16397C29.937 6.04449 30.0079 5.95832 30.1006 5.90546C30.1933 5.8526 30.2972 5.82617 30.4123 5.82617C30.5275 5.82617 30.6317 5.8526 30.7251 5.90546C30.8186 5.95832 30.8892 6.04449 30.9369 6.16397L32.7226 10.3913L37.3007 10.791C37.4289 10.8127 37.5306 10.8558 37.6059 10.9202C37.6812 10.984 37.7413 11.0669 37.7862 11.169C37.8304 11.2703 37.8369 11.3764 37.8058 11.4872C37.7746 11.598 37.7102 11.6932 37.6124 11.7729L34.1422 14.7815L35.1914 19.2456C35.232 19.3694 35.228 19.4846 35.1795 19.591C35.1309 19.6974 35.0596 19.7793 34.9655 19.8365C34.8728 19.8944 34.7769 19.9288 34.6777 19.9397C34.5792 19.9505 34.472 19.9273 34.3562 19.8701L30.4123 17.4893Z" fill="#FFC400"/>
<path d="M47.7908 17.4893L43.848 19.8701C43.7322 19.9273 43.6246 19.9505 43.5254 19.9397C43.4269 19.9281 43.331 19.894 43.2376 19.8376C43.1435 19.7796 43.0725 19.6978 43.0247 19.5921C42.9769 19.4864 42.9726 19.3709 43.0117 19.2456L44.0609 14.7815L40.5906 11.7729C40.4929 11.6932 40.4284 11.598 40.3973 11.4872C40.3662 11.3764 40.373 11.2703 40.4179 11.169C40.4628 11.0676 40.5226 10.9843 40.5972 10.9191C40.6725 10.8562 40.7738 10.8134 40.9013 10.791L45.4805 10.3913L47.2661 6.16397C47.3154 6.04449 47.3863 5.95832 47.479 5.90546C47.5717 5.8526 47.6756 5.82617 47.7908 5.82617C47.9059 5.82617 48.0102 5.8526 48.1036 5.90546C48.197 5.95832 48.2676 6.04449 48.3154 6.16397L50.101 10.3913L54.6791 10.791C54.8073 10.8127 54.909 10.8558 54.9843 10.9202C55.0597 10.984 55.1198 11.0669 55.1646 11.169C55.2088 11.2703 55.2153 11.3764 55.1842 11.4872C55.1531 11.598 55.0886 11.6932 54.9909 11.7729L51.5206 14.7815L52.5698 19.2456C52.6104 19.3694 52.6064 19.4846 52.5579 19.591C52.5094 19.6974 52.438 19.7793 52.3439 19.8365C52.2512 19.8944 52.1553 19.9288 52.0561 19.9397C51.9576 19.9505 51.8504 19.9273 51.7346 19.8701L47.7908 17.4893Z" fill="#FFC400"/>
<path d="M65.1694 17.4893L61.2267 19.8701C61.1108 19.9273 61.0033 19.9505 60.9041 19.9397C60.8056 19.9281 60.7097 19.894 60.6163 19.8376C60.5221 19.7796 60.4512 19.6978 60.4034 19.5921C60.3556 19.4864 60.3512 19.3709 60.3903 19.2456L61.4396 14.7815L57.9693 11.7729C57.8715 11.6932 57.8071 11.598 57.776 11.4872C57.7448 11.3764 57.7517 11.2703 57.7966 11.169C57.8415 11.0676 57.9012 10.9843 57.9758 10.9191C58.0511 10.8562 58.1525 10.8134 58.2799 10.791L62.8592 10.3913L64.6448 6.16397C64.694 6.04449 64.765 5.95832 64.8577 5.90546C64.9504 5.8526 65.0543 5.82617 65.1694 5.82617C65.2845 5.82617 65.3888 5.8526 65.4822 5.90546C65.5756 5.95832 65.6462 6.04449 65.694 6.16397L67.4797 10.3913L72.0578 10.791C72.186 10.8127 72.2877 10.8558 72.363 10.9202C72.4383 10.984 72.4984 11.0669 72.5433 11.169C72.5875 11.2703 72.594 11.3764 72.5629 11.4872C72.5317 11.598 72.4673 11.6932 72.3695 11.7729L68.8993 14.7815L69.9485 19.2456C69.989 19.3694 69.9851 19.4846 69.9365 19.591C69.888 19.6974 69.8167 19.7793 69.7226 19.8365C69.6299 19.8944 69.5339 19.9288 69.4347 19.9397C69.3363 19.9505 69.2291 19.9273 69.1132 19.8701L65.1694 17.4893Z" fill="#FFC400"/>
<path d="M82.5478 17.4893L78.6051 19.8701C78.4892 19.9273 78.3817 19.9505 78.2825 19.9397C78.184 19.9281 78.0881 19.894 77.9947 19.8376C77.9005 19.7796 77.8296 19.6978 77.7818 19.5921C77.734 19.4864 77.7297 19.3709 77.7688 19.2456L78.818 14.7815L75.3477 11.7729C75.25 11.6932 75.1855 11.598 75.1544 11.4872C75.1232 11.3764 75.1301 11.2703 75.175 11.169C75.2199 11.0676 75.2797 10.9843 75.3542 10.9191C75.4295 10.8562 75.5309 10.8134 75.6584 10.791L80.2376 10.3913L82.0232 6.16397C82.0725 6.04449 82.1434 5.95832 82.2361 5.90546C82.3288 5.8526 82.4327 5.82617 82.5478 5.82617C82.663 5.82617 82.7672 5.8526 82.8606 5.90546C82.9541 5.95832 83.0247 6.04449 83.0724 6.16397L84.8581 10.3913L89.4362 10.791C89.5644 10.8127 89.6661 10.8558 89.7414 10.9202C89.8167 10.984 89.8768 11.0669 89.9217 11.169C89.9659 11.2703 89.9724 11.3764 89.9413 11.4872C89.9101 11.598 89.8457 11.6932 89.7479 11.7729L86.2777 14.7815L87.3269 19.2456C87.3675 19.3694 87.3635 19.4846 87.315 19.591C87.2664 19.6974 87.1951 19.7793 87.101 19.8365C87.0083 19.8944 86.9124 19.9288 86.8132 19.9397C86.7147 19.9505 86.6075 19.9273 86.4917 19.8701L82.5478 17.4893Z" fill="#FFC400"/>
</svg>
