<svg width="80" height="80" viewBox="0 0 80 80" fill="none" xmlns="http://www.w3.org/2000/svg">
<path d="M51.5899 42.9667L56.6399 71.3867C56.6965 71.7213 56.6495 72.0653 56.5053 72.3725C56.3611 72.6798 56.1266 72.9357 55.833 73.106C55.5394 73.2763 55.2009 73.353 54.8626 73.3257C54.5243 73.2984 54.2024 73.1685 53.9399 72.9533L42.0066 63.9967C41.4305 63.5663 40.7307 63.3337 40.0116 63.3337C39.2925 63.3337 38.5927 63.5663 38.0166 63.9967L26.0632 72.95C25.801 73.1648 25.4794 73.2945 25.1416 73.3218C24.8037 73.3491 24.4655 73.2728 24.1721 73.1029C23.8787 72.933 23.6442 72.6778 23.4996 72.3711C23.3551 72.0645 23.3075 71.7211 23.3632 71.3867L28.4099 42.9667" stroke="black" stroke-width="6.66667" stroke-linecap="round" stroke-linejoin="round"/>
<path d="M40 46.6667C51.0457 46.6667 60 37.7124 60 26.6667C60 15.621 51.0457 6.66669 40 6.66669C28.9543 6.66669 20 15.621 20 26.6667C20 37.7124 28.9543 46.6667 40 46.6667Z" stroke="black" stroke-width="6.66667" stroke-linecap="round" stroke-linejoin="round"/>
</svg>
