<svg width="80" height="80" viewBox="0 0 80 80" fill="none" xmlns="http://www.w3.org/2000/svg">
<path d="M71.4001 36.4067C71.9968 36.1434 72.5032 35.7109 72.8565 35.1627C73.2098 34.6145 73.3945 33.9746 73.3878 33.3224C73.3811 32.6703 73.1831 32.0344 72.8186 31.4936C72.454 30.9528 71.9388 30.5308 71.3367 30.28L42.7667 17.2667C41.8982 16.8705 40.9547 16.6655 40.0001 16.6655C39.0454 16.6655 38.1019 16.8705 37.2334 17.2667L8.66673 30.2667C8.07329 30.5266 7.56845 30.9538 7.21395 31.496C6.85945 32.0383 6.67065 32.6721 6.67065 33.32C6.67065 33.9679 6.85945 34.6017 7.21395 35.1439C7.56845 35.6862 8.07329 36.1134 8.66673 36.3733L37.2334 49.4C38.1019 49.7962 39.0454 50.0012 40.0001 50.0012C40.9547 50.0012 41.8982 49.7962 42.7667 49.4L71.4001 36.4067Z" stroke="black" stroke-width="6.66667" stroke-linecap="round" stroke-linejoin="round"/>
<path d="M73.3333 33.3333V53.3333" stroke="black" stroke-width="6.66667" stroke-linecap="round" stroke-linejoin="round"/>
<path d="M20 41.6667V53.3334C20 55.9855 22.1071 58.5291 25.8579 60.4044C29.6086 62.2798 34.6957 63.3334 40 63.3334C45.3043 63.3334 50.3914 62.2798 54.1421 60.4044C57.8929 58.5291 60 55.9855 60 53.3334V41.6667" stroke="black" stroke-width="6.66667" stroke-linecap="round" stroke-linejoin="round"/>
</svg>
