<svg width="80" height="80" viewBox="0 0 80 80" fill="none" xmlns="http://www.w3.org/2000/svg">
<path d="M60.0001 70C60.0001 62.9275 57.1906 56.1448 52.1896 51.1438C47.1886 46.1428 40.4059 43.3333 33.3334 43.3333C26.261 43.3333 19.4782 46.1428 14.4772 51.1438C9.47626 56.1448 6.66675 62.9275 6.66675 70" stroke="black" stroke-width="6.66667" stroke-linecap="round" stroke-linejoin="round"/>
<path d="M33.3334 43.3333C42.5382 43.3333 50.0001 35.8714 50.0001 26.6667C50.0001 17.4619 42.5382 10 33.3334 10C24.1287 10 16.6667 17.4619 16.6667 26.6667C16.6667 35.8714 24.1287 43.3333 33.3334 43.3333Z" stroke="black" stroke-width="6.66667" stroke-linecap="round" stroke-linejoin="round"/>
<path d="M73.3333 66.6666C73.3333 55.4333 66.6667 45 60 40C62.1914 38.3559 63.9437 36.1969 65.1019 33.7142C66.2601 31.2315 66.7884 28.5015 66.6401 25.766C66.4917 23.0304 65.6714 20.3736 64.2516 18.0306C62.8318 15.6877 60.8563 13.7309 58.5 12.3333" stroke="black" stroke-width="6.66667" stroke-linecap="round" stroke-linejoin="round"/>
</svg>
