<svg width="22" height="22" viewBox="0 0 22 22" fill="none" xmlns="http://www.w3.org/2000/svg">
<path d="M19.6667 10.6667C19.6667 15.6373 15.6372 19.6667 10.6667 19.6667C5.69611 19.6667 1.66667 15.6373 1.66667 10.6667C1.66667 5.69612 5.69611 1.66669 10.6667 1.66669C15.6372 1.66669 19.6667 5.69612 19.6667 10.6667Z" fill="#AAC5FF"/>
<path d="M14.7719 8.06142L9.1272 13.7062L6.56141 11.1404" fill="#AAC5FF"/>
<path d="M14.7719 8.06142L9.1272 13.7062L6.56141 11.1404M19.6667 10.6667C19.6667 15.6373 15.6372 19.6667 10.6667 19.6667C5.69611 19.6667 1.66667 15.6373 1.66667 10.6667C1.66667 5.69612 5.69611 1.66669 10.6667 1.66669C15.6372 1.66669 19.6667 5.69612 19.6667 10.6667Z" stroke="#1B59DF" stroke-width="3.33333" stroke-linecap="round" stroke-linejoin="round"/>
</svg>
